<svg version="1.0" xmlns="http://www.w3.org/2000/svg"
     width="100.000000pt" height="100.000000pt" viewBox="0 0 314.000000 252.000000"
     preserveAspectRatio="xMidYMid meet">
    <g transform="translate(0.000000,252.000000) scale(0.100000,-0.100000)"
       fill="#ffffff" stroke="none">
        <path d="M80 2477 c-27 -14 -35 -36 -26 -72 6 -23 62 -67 271 -209 125 -86
184 -154 220 -256 33 -93 25 -142 -134 -894 -83 -389 -151 -725 -151 -745 0
-52 41 -132 84 -165 76 -58 43 -56 1115 -56 682 0 998 3 1026 11 112 31 159
118 221 411 49 236 78 370 99 468 8 36 46 218 85 405 39 187 77 369 85 405 8
36 23 110 35 165 12 55 23 110 26 123 l4 22 -158 0 c-156 0 -159 0 -182 -25
-28 -30 -63 -32 -90 -5 -28 28 -25 64 6 89 36 28 51 26 82 -9 l26 -30 158 0
158 0 10 25 c5 14 12 54 16 90 l7 65 -462 0 c-324 0 -461 3 -461 11 0 6 17 10
43 8 23 -1 230 -2 460 -1 l417 2 -15 38 c-21 50 -93 118 -141 131 -61 17
-2801 15 -2834 -2z m2084 -308 c212 -49 366 -166 454 -344 50 -100 53 -95 -73
-127 -60 -16 -160 -40 -222 -55 l-112 -26 -38 34 c-159 144 -404 161 -589 41
-98 -64 -173 -150 -230 -261 -96 -189 -88 -402 19 -519 68 -73 151 -102 292
-102 148 0 276 48 382 145 35 31 67 54 72 51 5 -3 91 -28 191 -55 100 -27 184
-52 187 -55 9 -9 -107 -144 -175 -204 -144 -128 -331 -230 -507 -279 -85 -23
-119 -27 -230 -27 -158 0 -255 23 -394 90 -159 78 -274 214 -327 389 -28 91
-26 320 4 439 33 131 87 260 147 350 180 267 453 457 750 521 98 22 292 19
399 -6z"/>
    </g>
</svg>

